<svg xmlns="http://www.w3.org/2000/svg" width="720" height="720" viewBox="0 0 720 720" role="img" aria-label="NERC Grid Map README graphic">
  <defs>
    <linearGradient id="bg" x1="0" y1="0" x2="1" y2="1"><stop stop-color="#080d22"/><stop offset="1" stop-color="#0e1633"/></linearGradient>
    <filter id="glow"><feGaussianBlur stdDeviation="5" result="blur"/><feMerge><feMergeNode in="blur"/><feMergeNode in="SourceGraphic"/></feMerge></filter>
    <pattern id="grid" width="36" height="36" patternUnits="userSpaceOnUse"><path d="M36 0H0v36" fill="none" stroke="#1b2547" stroke-width="1" opacity=".38"/></pattern>
  </defs>
  <rect width="100%" height="100%" rx="18" fill="url(#bg)"/>
  <rect width="100%" height="100%" rx="18" fill="url(#grid)" opacity=".7"/>
  <style>text{font-family:-apple-system,BlinkMacSystemFont,'Segoe UI',Arial,sans-serif} .muted{fill:#8f9ac9} .small{font-size:14px} .title{fill:#fff;font-weight:800;letter-spacing:.2px} .label{fill:#fff;font-weight:700} .mono{font-family:ui-monospace,SFMono-Regular,Menlo,Consolas,monospace}</style>
  <circle cx="360" cy="360" r="110" fill="none" stroke="#26345f" stroke-width="1" opacity=".55"/>
  <circle cx="360" cy="360" r="170" fill="none" stroke="#26345f" stroke-width="1" opacity=".55"/>
  <circle cx="360" cy="360" r="230" fill="none" stroke="#26345f" stroke-width="1" opacity=".55"/>
  <circle cx="360.0" cy="230.0" r="45.5" fill="#3650d3" opacity=".18" filter="url(#glow)"/>
  <circle cx="360.0" cy="230.0" r="26.0" fill="#3650d3" opacity=".92"/>
  <text x="360.0" y="234.55" text-anchor="middle" class="label" font-size="13">BA</text>
  <circle cx="449.9" cy="142.9" r="27.125" fill="#849cb3" opacity=".18" filter="url(#glow)"/>
  <circle cx="449.9" cy="142.9" r="15.5" fill="#849cb3" opacity=".92"/>
  <text x="449.9" y="147.45000000000002" text-anchor="middle" class="label" font-size="13">DP</text>
  <circle cx="505.0" cy="215.0" r="32.375" fill="#62a5a7" opacity=".18" filter="url(#glow)"/>
  <circle cx="505.0" cy="215.0" r="18.5" fill="#62a5a7" opacity=".92"/>
  <text x="505.0" y="219.55" text-anchor="middle" class="label" font-size="13">FRSG</text>
  <circle cx="563.3" cy="275.8" r="29.75" fill="#ca7021" opacity=".18" filter="url(#glow)"/>
  <circle cx="563.3" cy="275.8" r="17.0" fill="#ca7021" opacity=".92"/>
  <text x="563.3" y="280.35" text-anchor="middle" class="label" font-size="13">GO</text>
  <circle cx="580.0" cy="360.0" r="29.75" fill="#ca902b" opacity=".18" filter="url(#glow)"/>
  <circle cx="580.0" cy="360.0" r="17.0" fill="#ca902b" opacity=".92"/>
  <text x="580.0" y="364.55" text-anchor="middle" class="label" font-size="13">GOP</text>
  <circle cx="563.3" cy="444.2" r="29.75" fill="#61a92d" opacity=".18" filter="url(#glow)"/>
  <circle cx="563.3" cy="444.2" r="17.0" fill="#61a92d" opacity=".92"/>
  <text x="563.3" y="448.75" text-anchor="middle" class="label" font-size="13">LSE</text>
  <circle cx="462.5" cy="462.5" r="42.875" fill="#594ed0" opacity=".18" filter="url(#glow)"/>
  <circle cx="462.5" cy="462.5" r="24.5" fill="#594ed0" opacity=".92"/>
  <text x="462.5" y="467.05" text-anchor="middle" class="label" font-size="13">PC</text>
  <circle cx="449.9" cy="577.1" r="27.125" fill="#cc338c" opacity=".18" filter="url(#glow)"/>
  <circle cx="449.9" cy="577.1" r="15.5" fill="#cc338c" opacity=".92"/>
  <text x="449.9" y="581.65" text-anchor="middle" class="label" font-size="13">PSE</text>
  <circle cx="360.0" cy="460.0" r="50.75" fill="#6f3ad9" opacity=".18" filter="url(#glow)"/>
  <circle cx="360.0" cy="460.0" r="29.0" fill="#6f3ad9" opacity=".92"/>
  <text x="360.0" y="464.55" text-anchor="middle" class="label" font-size="13">RC</text>
  <circle cx="275.8" cy="563.3" r="29.75" fill="#79a0b4" opacity=".18" filter="url(#glow)"/>
  <circle cx="275.8" cy="563.3" r="17.0" fill="#79a0b4" opacity=".92"/>
  <text x="275.8" y="567.8499999999999" text-anchor="middle" class="label" font-size="13">RP</text>
  <circle cx="215.0" cy="505.0" r="32.375" fill="#6ba3a8" opacity=".18" filter="url(#glow)"/>
  <circle cx="215.0" cy="505.0" r="18.5" fill="#6ba3a8" opacity=".92"/>
  <text x="215.0" y="509.55" text-anchor="middle" class="label" font-size="13">RRSG</text>
  <circle cx="170.6" cy="438.5" r="32.375" fill="#5999a6" opacity=".18" filter="url(#glow)"/>
  <circle cx="170.6" cy="438.5" r="18.5" fill="#5999a6" opacity=".92"/>
  <text x="170.6" y="443.05" text-anchor="middle" class="label" font-size="13">RSG</text>
  <circle cx="140.0" cy="360.0" r="29.75" fill="#ce5127" opacity=".18" filter="url(#glow)"/>
  <circle cx="140.0" cy="360.0" r="17.0" fill="#ce5127" opacity=".92"/>
  <text x="140.0" y="364.55" text-anchor="middle" class="label" font-size="13">TO</text>
  <circle cx="212.2" cy="298.8" r="40.25" fill="#1ba79b" opacity=".18" filter="url(#glow)"/>
  <circle cx="212.2" cy="298.8" r="23.0" fill="#1ba79b" opacity=".92"/>
  <text x="212.2" y="303.35" text-anchor="middle" class="label" font-size="13">TOP</text>
  <circle cx="225.6" cy="225.6" r="35.0" fill="#2db465" opacity=".18" filter="url(#glow)"/>
  <circle cx="225.6" cy="225.6" r="20.0" fill="#2db465" opacity=".92"/>
  <text x="225.6" y="230.15" text-anchor="middle" class="label" font-size="13">TP</text>
  <circle cx="293.0" cy="198.3" r="37.625" fill="#25b17e" opacity=".18" filter="url(#glow)"/>
  <circle cx="293.0" cy="198.3" r="21.5" fill="#25b17e" opacity=".92"/>
  <text x="293.0" y="202.85000000000002" text-anchor="middle" class="label" font-size="13">TSP</text>
  <text x="42" y="52" class="title" font-size="26">Role constellation</text>
  <text x="42" y="82" class="muted" font-size="15">size = role weight · color = role anchor</text>
</svg>